<svg width="230" height="55" viewBox="0 0 230 55" fill="none" xmlns="http://www.w3.org/2000/svg">
<path fill-rule="evenodd" clip-rule="evenodd" d="M16.8988 40.8412L6.00616 50.1516L0 21.2509L14.5696 18.8618L16.8988 40.8412Z" fill="#A5CD79"/>
<path fill-rule="evenodd" clip-rule="evenodd" d="M35.5351 54.0214L6.00616 50.1515L16.8988 40.8398L49.0566 42.4432L35.5351 54.0214Z" fill="#243A67"/>
<path fill-rule="evenodd" clip-rule="evenodd" d="M39.019 18.9374L35.5351 54.0214L49.0567 42.4432L53.9393 16.7137L39.019 18.9374Z" fill="#327A52"/>
<path fill-rule="evenodd" clip-rule="evenodd" d="M14.5693 18.8604L33.9394 0L19.5784 0.392324L0.0010376 21.2509L14.5693 18.8617" fill="#36628A"/>
<path fill-rule="evenodd" clip-rule="evenodd" d="M19.5786 0.392324L39.0189 18.9373L53.9392 16.715L33.9395 0L19.5786 0.392324Z" fill="#A5CD79"/>
<path d="M65.2272 39.7796H66.577C67.4283 39.0742 68.1336 38.1867 68.6928 37.1165C69.2765 36.0463 69.7873 34.3197 70.225 31.9362C70.6873 29.5285 71.0156 26.1965 71.21 21.9405L71.6843 13.1852H84.0512V39.7796H86.8967V48.0972H83.7229L83.3946 42.7345H68.7293L68.401 48.0972H65.2272V39.7796ZM79.9654 39.7796V16.2496H75.1864L74.8946 22.9255C74.7244 27.0356 74.4326 30.1974 74.019 32.4105C73.6057 34.6236 73.1315 36.1922 72.5963 37.1165C72.0613 38.0163 71.3317 38.9041 70.4074 39.7796H79.9654ZM97.5475 43.0629C94.6533 43.0629 92.5739 42.248 91.3093 40.6187C90.069 38.9648 89.4488 36.5815 89.4488 33.4684V22.2689C89.4488 19.2045 90.0809 16.8819 91.3458 15.3011C92.6104 13.7202 94.6775 12.9298 97.5475 12.9298C100.417 12.9298 102.472 13.7324 103.713 15.3375C104.977 16.9184 105.61 19.2288 105.61 22.2689V33.5049C105.61 36.5693 104.977 38.9283 103.713 40.5822C102.448 42.236 100.393 43.0629 97.5475 43.0629ZM97.5475 39.8161C99.0797 39.8161 100.113 39.3661 100.648 38.4663C101.183 37.5665 101.451 36.2045 101.451 34.3805V21.4298C101.451 19.6301 101.183 18.3046 100.648 17.4534C100.113 16.5779 99.0797 16.1401 97.5475 16.1401C95.9908 16.1401 94.9451 16.5779 94.4102 17.4534C93.8749 18.3046 93.6076 19.6301 93.6076 21.4298V34.3805C93.6076 36.2045 93.8749 37.5665 94.4102 38.4663C94.9451 39.3661 95.9908 39.8161 97.5475 39.8161ZM110.135 13.1852H114.185L119.402 37.153L124.655 13.1852H128.668L129.215 42.7345H125.895L125.567 21.2839L120.569 42.7345H118.234L113.273 21.2839L112.944 42.7345H109.588L110.135 13.1852ZM133.744 13.1852H137.392V33.6508L146.038 13.1852H148.993V42.7345H145.382V21.9405L136.809 42.7345H133.744V13.1852ZM153.623 13.1852H157.746V25.9534H165.334V13.1852H169.456V42.7345H165.334V28.9084H157.746V42.7345H153.623V13.1852ZM174.073 13.1852H177.721V33.6508L186.367 13.1852H189.321V42.7345H185.71V21.9405L177.137 42.7345H174.073V13.1852ZM193.587 44.0478C194.243 44.1208 194.815 44.1573 195.301 44.1573C196.493 44.1573 197.308 43.9626 197.746 43.5736C198.208 43.1845 198.439 42.5644 198.439 41.7131C198.439 41.2266 198.354 40.4727 198.183 39.4513L192.346 13.1852H196.25L198.731 25.771L200.226 35.1465L201.54 25.844L203.765 13.1852H207.705L202.415 39.5242L202.123 41.1659C201.807 42.8927 201.491 44.145 201.175 44.9234C200.883 45.7017 200.312 46.2854 199.46 46.6744C198.609 47.088 197.296 47.2946 195.52 47.2946C195.204 47.2946 194.56 47.2704 193.587 47.2217V44.0478ZM210.921 13.1852H214.97L220.187 37.153L225.44 13.1852H229.453L230 42.7345H226.68L226.352 21.2839L221.354 42.7345H219.019L214.058 21.2839L213.73 42.7345H210.373L210.921 13.1852Z" fill="#253B66"/>
</svg>
