<?xml version="1.0" encoding="UTF-8"?> <svg xmlns="http://www.w3.org/2000/svg" width="200" height="47" viewBox="0 0 200 47" fill="none"><path fill-rule="evenodd" clip-rule="evenodd" d="M14.6946 35.514L5.22274 43.61L0 18.479L12.6692 16.4015L14.6946 35.514Z" fill="#A5CD79"></path><path fill-rule="evenodd" clip-rule="evenodd" d="M30.9001 46.9751L5.22278 43.61L14.6947 35.5129L42.658 36.9071L30.9001 46.9751Z" fill="#243A67"></path><path fill-rule="evenodd" clip-rule="evenodd" d="M33.9296 16.4673L30.9001 46.9751L42.658 36.9071L46.9038 14.5337L33.9296 16.4673Z" fill="#327A52"></path><path fill-rule="evenodd" clip-rule="evenodd" d="M12.6691 16.4004L29.5126 0L17.0248 0.341151L0.0010376 18.479L12.6691 16.4015" fill="#36628A"></path><path fill-rule="evenodd" clip-rule="evenodd" d="M17.0248 0.341151L33.9295 16.4672L46.9037 14.5348L29.5126 0L17.0248 0.341151Z" fill="#A5CD79"></path><path d="M56.7192 34.5909H57.893C58.6332 33.9775 59.2466 33.2058 59.7329 32.2752C60.2404 31.3446 60.6845 29.8432 61.0652 27.7706C61.4672 25.6769 61.7527 22.7796 61.9217 19.0787L62.3341 11.4653H73.088V34.5909H75.5623V41.8236H72.8025L72.517 37.1604H59.7646L59.4791 41.8236H56.7192V34.5909ZM69.5351 34.5909V14.13H65.3794L65.1257 19.9352C64.9777 23.5092 64.7239 26.2586 64.3643 28.183C64.0049 30.1074 63.5926 31.4715 63.1271 32.2752C62.662 33.0576 62.0275 33.8296 61.2238 34.5909H69.5351ZM84.8239 37.4459C82.3072 37.4459 80.499 36.7374 79.3993 35.3205C78.3208 33.8824 77.7815 31.81 77.7815 29.103V19.3642C77.7815 16.6995 78.3312 14.6799 79.4311 13.3052C80.5307 11.9306 82.3282 11.2433 84.8239 11.2433C87.3193 11.2433 89.1064 11.9412 90.1849 13.337C91.2846 14.7116 91.8345 16.7207 91.8345 19.3642V29.1347C91.8345 31.7994 91.2846 33.8507 90.1849 35.2888C89.0851 36.727 87.2982 37.4459 84.8239 37.4459ZM84.8239 34.6226C86.1562 34.6226 87.0548 34.2313 87.5203 33.4489C87.9854 32.6665 88.2182 31.4821 88.2182 29.896V18.6346C88.2182 17.0696 87.9854 15.9171 87.5203 15.1769C87.0548 14.4155 86.1562 14.0349 84.8239 14.0349C83.4702 14.0349 82.5609 14.4155 82.0957 15.1769C81.6303 15.9171 81.3979 17.0696 81.3979 18.6346V29.896C81.3979 31.4821 81.6303 32.6665 82.0957 33.4489C82.5609 34.2313 83.4702 34.6226 84.8239 34.6226ZM95.7699 11.4653H99.2911L103.827 32.3069L108.395 11.4653H111.885L112.361 37.1604H109.474L109.188 18.5077L104.842 37.1604H102.812L98.498 18.5077L98.2125 37.1604H95.294L95.7699 11.4653ZM116.299 11.4653H119.471V29.2616L126.99 11.4653H129.559V37.1604H126.419V19.0787L118.964 37.1604H116.299V11.4653ZM133.585 11.4653H137.17V22.5682H143.768V11.4653H147.353V37.1604H143.768V25.1377H137.17V37.1604H133.585V11.4653ZM151.367 11.4653H154.54V29.2616L162.058 11.4653H164.627V37.1604H161.487V19.0787L154.032 37.1604H151.367V11.4653ZM168.336 38.3024C168.907 38.3659 169.404 38.3976 169.827 38.3976C170.863 38.3976 171.572 38.2283 171.953 37.89C172.354 37.5517 172.555 37.0125 172.555 36.2722C172.555 35.8492 172.481 35.1936 172.333 34.3054L167.258 11.4653H170.652L172.809 22.4095L174.11 30.5622L175.252 22.473L177.187 11.4653H180.613L176.013 34.3689L175.759 35.7964C175.484 37.298 175.209 38.3869 174.935 39.0638C174.681 39.7406 174.184 40.2481 173.444 40.5864C172.703 40.946 171.561 41.1257 170.018 41.1257C169.743 41.1257 169.182 41.1046 168.336 41.0623V38.3024ZM183.409 11.4653H186.93L191.467 32.3069L196.035 11.4653H199.524L200 37.1604H197.113L196.828 18.5077L192.482 37.1604H190.452L186.137 18.5077L185.852 37.1604H182.933L183.409 11.4653Z" fill="#253B66"></path></svg> 